<mxfile host="app.diagrams.net" modified="2023-08-07T00:07:55.422Z" agent="Mozilla/5.0 (Windows NT 10.0; Win64; x64) AppleWebKit/537.36 (KHTML, like Gecko) Chrome/115.0.0.0 Safari/537.36" etag="bksO01F21vCSNV11P5dZ" version="21.6.6" type="device">
  <diagram name="Page-1" id="8gpV7xHivw1CbJks1hNY">
    <mxGraphModel dx="472" dy="780" grid="1" gridSize="10" guides="1" tooltips="1" connect="1" arrows="1" fold="1" page="1" pageScale="1" pageWidth="850" pageHeight="1100" math="0" shadow="0">
      <root>
        <mxCell id="0" />
        <mxCell id="1" parent="0" />
        <mxCell id="oRwTiBhRduaK2-V26PwW-20" style="edgeStyle=orthogonalEdgeStyle;rounded=0;orthogonalLoop=1;jettySize=auto;html=1;entryX=0.5;entryY=0;entryDx=0;entryDy=0;" edge="1" parent="1" source="oRwTiBhRduaK2-V26PwW-1" target="oRwTiBhRduaK2-V26PwW-3">
          <mxGeometry relative="1" as="geometry" />
        </mxCell>
        <mxCell id="oRwTiBhRduaK2-V26PwW-1" value="" style="rounded=1;whiteSpace=wrap;html=1;" vertex="1" parent="1">
          <mxGeometry x="200" y="80" width="120" height="60" as="geometry" />
        </mxCell>
        <mxCell id="oRwTiBhRduaK2-V26PwW-2" value="Start" style="text;html=1;strokeColor=none;fillColor=none;align=center;verticalAlign=middle;whiteSpace=wrap;rounded=0;" vertex="1" parent="1">
          <mxGeometry x="230" y="95" width="60" height="30" as="geometry" />
        </mxCell>
        <mxCell id="oRwTiBhRduaK2-V26PwW-21" style="edgeStyle=orthogonalEdgeStyle;rounded=0;orthogonalLoop=1;jettySize=auto;html=1;entryX=0.5;entryY=0;entryDx=0;entryDy=0;" edge="1" parent="1" source="oRwTiBhRduaK2-V26PwW-3" target="oRwTiBhRduaK2-V26PwW-5">
          <mxGeometry relative="1" as="geometry" />
        </mxCell>
        <mxCell id="oRwTiBhRduaK2-V26PwW-3" value="" style="rounded=1;whiteSpace=wrap;html=1;" vertex="1" parent="1">
          <mxGeometry x="200" y="180" width="120" height="60" as="geometry" />
        </mxCell>
        <mxCell id="oRwTiBhRduaK2-V26PwW-4" value="Variable Declarations" style="text;html=1;strokeColor=none;fillColor=none;align=center;verticalAlign=middle;whiteSpace=wrap;rounded=0;" vertex="1" parent="1">
          <mxGeometry x="230" y="195" width="60" height="30" as="geometry" />
        </mxCell>
        <mxCell id="oRwTiBhRduaK2-V26PwW-22" style="edgeStyle=orthogonalEdgeStyle;rounded=0;orthogonalLoop=1;jettySize=auto;html=1;entryX=0.5;entryY=0;entryDx=0;entryDy=0;" edge="1" parent="1" source="oRwTiBhRduaK2-V26PwW-5" target="oRwTiBhRduaK2-V26PwW-7">
          <mxGeometry relative="1" as="geometry" />
        </mxCell>
        <mxCell id="oRwTiBhRduaK2-V26PwW-5" value="" style="rounded=1;whiteSpace=wrap;html=1;" vertex="1" parent="1">
          <mxGeometry x="200" y="280" width="120" height="60" as="geometry" />
        </mxCell>
        <mxCell id="oRwTiBhRduaK2-V26PwW-6" value="Open input.in for reading" style="text;html=1;strokeColor=none;fillColor=none;align=center;verticalAlign=middle;whiteSpace=wrap;rounded=0;" vertex="1" parent="1">
          <mxGeometry x="230" y="295" width="60" height="30" as="geometry" />
        </mxCell>
        <mxCell id="oRwTiBhRduaK2-V26PwW-23" style="edgeStyle=orthogonalEdgeStyle;rounded=0;orthogonalLoop=1;jettySize=auto;html=1;entryX=0.5;entryY=0;entryDx=0;entryDy=0;" edge="1" parent="1" source="oRwTiBhRduaK2-V26PwW-7" target="oRwTiBhRduaK2-V26PwW-9">
          <mxGeometry relative="1" as="geometry" />
        </mxCell>
        <mxCell id="oRwTiBhRduaK2-V26PwW-7" value="" style="rounded=1;whiteSpace=wrap;html=1;" vertex="1" parent="1">
          <mxGeometry x="200" y="380" width="120" height="60" as="geometry" />
        </mxCell>
        <mxCell id="oRwTiBhRduaK2-V26PwW-8" value="While scanner has data" style="text;html=1;strokeColor=none;fillColor=none;align=center;verticalAlign=middle;whiteSpace=wrap;rounded=0;" vertex="1" parent="1">
          <mxGeometry x="230" y="395" width="60" height="30" as="geometry" />
        </mxCell>
        <mxCell id="oRwTiBhRduaK2-V26PwW-24" style="edgeStyle=orthogonalEdgeStyle;rounded=0;orthogonalLoop=1;jettySize=auto;html=1;entryX=0;entryY=0.5;entryDx=0;entryDy=0;" edge="1" parent="1" source="oRwTiBhRduaK2-V26PwW-9" target="oRwTiBhRduaK2-V26PwW-14">
          <mxGeometry relative="1" as="geometry">
            <Array as="points">
              <mxPoint x="100" y="610" />
            </Array>
          </mxGeometry>
        </mxCell>
        <mxCell id="oRwTiBhRduaK2-V26PwW-9" value="" style="rounded=1;whiteSpace=wrap;html=1;" vertex="1" parent="1">
          <mxGeometry x="40" y="480" width="120" height="60" as="geometry" />
        </mxCell>
        <mxCell id="oRwTiBhRduaK2-V26PwW-10" value="if sum &amp;gt; 10 million" style="text;html=1;strokeColor=none;fillColor=none;align=center;verticalAlign=middle;whiteSpace=wrap;rounded=0;" vertex="1" parent="1">
          <mxGeometry x="70" y="495" width="60" height="30" as="geometry" />
        </mxCell>
        <mxCell id="oRwTiBhRduaK2-V26PwW-25" style="edgeStyle=orthogonalEdgeStyle;rounded=0;orthogonalLoop=1;jettySize=auto;html=1;entryX=0.5;entryY=0;entryDx=0;entryDy=0;" edge="1" parent="1" source="oRwTiBhRduaK2-V26PwW-14" target="oRwTiBhRduaK2-V26PwW-16">
          <mxGeometry relative="1" as="geometry" />
        </mxCell>
        <mxCell id="oRwTiBhRduaK2-V26PwW-14" value="" style="rounded=1;whiteSpace=wrap;html=1;" vertex="1" parent="1">
          <mxGeometry x="200" y="580" width="120" height="60" as="geometry" />
        </mxCell>
        <mxCell id="oRwTiBhRduaK2-V26PwW-15" value="Calculate Average" style="text;html=1;strokeColor=none;fillColor=none;align=center;verticalAlign=middle;whiteSpace=wrap;rounded=0;" vertex="1" parent="1">
          <mxGeometry x="230" y="595" width="60" height="30" as="geometry" />
        </mxCell>
        <mxCell id="oRwTiBhRduaK2-V26PwW-26" style="edgeStyle=orthogonalEdgeStyle;rounded=0;orthogonalLoop=1;jettySize=auto;html=1;entryX=0.5;entryY=0;entryDx=0;entryDy=0;" edge="1" parent="1" source="oRwTiBhRduaK2-V26PwW-16" target="oRwTiBhRduaK2-V26PwW-18">
          <mxGeometry relative="1" as="geometry" />
        </mxCell>
        <mxCell id="oRwTiBhRduaK2-V26PwW-16" value="" style="rounded=1;whiteSpace=wrap;html=1;" vertex="1" parent="1">
          <mxGeometry x="200" y="680" width="120" height="60" as="geometry" />
        </mxCell>
        <mxCell id="oRwTiBhRduaK2-V26PwW-17" value="Print write to output.out" style="text;html=1;strokeColor=none;fillColor=none;align=center;verticalAlign=middle;whiteSpace=wrap;rounded=0;" vertex="1" parent="1">
          <mxGeometry x="230" y="695" width="60" height="30" as="geometry" />
        </mxCell>
        <mxCell id="oRwTiBhRduaK2-V26PwW-18" value="" style="rounded=1;whiteSpace=wrap;html=1;" vertex="1" parent="1">
          <mxGeometry x="200" y="780" width="120" height="60" as="geometry" />
        </mxCell>
        <mxCell id="oRwTiBhRduaK2-V26PwW-19" value="Completion Message" style="text;html=1;strokeColor=none;fillColor=none;align=center;verticalAlign=middle;whiteSpace=wrap;rounded=0;" vertex="1" parent="1">
          <mxGeometry x="230" y="795" width="60" height="30" as="geometry" />
        </mxCell>
      </root>
    </mxGraphModel>
  </diagram>
</mxfile>
